<?xml version="1.0" encoding="utf-8"?>
<!-- Generator: Adobe Illustrator 22.1.0, SVG Export Plug-In . SVG Version: 6.00 Build 0)  -->
<svg version="1.1" id="Layer_1" xmlns="http://www.w3.org/2000/svg" xmlns:xlink="http://www.w3.org/1999/xlink" x="0px" y="0px"
	 viewBox="0 0 1007.4 179.7" style="enable-background:new 0 0 1007.4 179.7;" xml:space="preserve">
<style type="text/css">
	.Arched_x0020_Green{fill:url(#SVGID_1_);stroke:#FFFFFF;stroke-width:0.25;stroke-miterlimit:1;}
	.st0{fill:#003C7B;}
	.st1{fill:#00A2B2;}
	.st2{fill:#1E4179;}
</style>
<linearGradient id="SVGID_1_" gradientUnits="userSpaceOnUse" x1="194" y1="485.8372" x2="194.7071" y2="485.1302">
	<stop  offset="0" style="stop-color:#20AB4B"/>
	<stop  offset="0.9831" style="stop-color:#1D361D"/>
</linearGradient>
<path class="st0" d="M302.9,75.7h-2.7c-2.3-14.7-14.7-20.2-27-20.2c-13.6,0-26.8,10.7-26.8,30.6c0,19.3,11.1,36.8,28.8,36.8
	c7.7,0,19.7-4.5,28.5-18.4l0.9,12.1c-10.8,7.8-21.7,10.6-32.7,10.6c-35.4,0-40.7-27.4-40.7-38.6c0-16.6,11.8-37,43.6-37
	c6.5,0,18.3,1.8,28.1,5.7V75.7z"/>
<path class="st0" d="M347.6,51.7c22.1,0,41.7,15.5,41.7,37.8c0,19.9-15.3,37.8-40.3,37.8c-22.1,0-41.7-15.5-41.7-37.8
	C307.3,69.6,322.5,51.7,347.6,51.7z M351.6,123.3c6.5,0,22.5-4,22.5-29.4c0-19.9-11.3-38.4-29.2-38.4c-6.5,0-22.5,4-22.5,29.4
	C322.4,104.8,333.7,123.3,351.6,123.3z"/>
<path class="st0" d="M386.8,122.8c6.7-0.1,8.5-2.6,8.5-8.3V64.4c0-5.7-1.8-8.2-8.5-8.3V53c4.2,0.1,8.2,0.3,11.1,0.3
	c2.2,0,5.2-0.2,8.2-0.3l48.2,54L454,64.9c0-6.2-1.4-8.8-8.8-8.8V53c3.8,0.1,7.9,0.3,11.1,0.3c3.3,0,7.4-0.2,11.4-0.3v3.1
	c-6.7,0.1-8.5,2.6-8.5,8.3v62.3H455l-55.4-61.1l0.8,48.1c0.1,7.6,2,8.6,8.5,9.2v3.1c-3.1-0.2-8.6-0.3-11.1-0.3
	c-2.5,0-8,0.1-11.1,0.3V122.8z"/>
<path class="st0" d="M471,122.8c6.6-0.1,8.5-2.6,8.5-8.3V64.4c0-5.7-1.8-8.2-8.5-8.3V53c3.5,0.1,8.5,0.3,13.7,0.3
	c15.7,0,28.3-0.2,37.8-0.3l0.4,17.2h-3.3c-1.6-9.8-6-13.3-18.3-13.3h-8.9v29.6h7.9c9.3,0,10.7-3.4,11.4-9.8h3.5
	c-0.1,4-0.2,7.8-0.2,11.1c0,4.8,0.1,8.7,0.2,12.8h-3.5c0-8.1-2.6-10.1-11.5-10.1h-7.8v24.4c0,4.7,1.9,7.3,11.6,7.3
	c10.4,0,17.7-2,20.2-14.9h3.5c-0.6,4.9-1.5,13.5-1.5,18.7c-9.9-0.1-22.9-0.3-39-0.3c-7.9,0-14,0.2-16.1,0.3V122.8z"/>
<path class="st0" d="M562,122.8c6.7-0.1,8.5-2.6,8.5-8.3V64.4c0-5.7-1.8-8.2-8.5-8.3V53c8.2,0.2,11.7,0.3,14.9,0.3
	c3.3,0,6.8-0.1,15-0.3v3.1c-6.7,0.1-8.5,2.6-8.5,8.3V85h38.4V64.4c0-5.7-1.8-8.2-8.5-8.3V53c8.2,0.2,11.7,0.3,15,0.3
	c3.3,0,6.7-0.1,14.9-0.3v3.1c-6.7,0.1-8.5,2.6-8.5,8.3v50.2c0,5.7,1.8,8.2,8.5,8.3v3.1c-8.2-0.2-11.7-0.3-14.9-0.3
	c-3.3,0-6.8,0.1-15,0.3v-3.1c6.7-0.1,8.5-2.6,8.5-8.3V89.3h-38.4v25.2c0,5.7,1.8,8.2,8.5,8.3v3.1c-8.2-0.2-11.7-0.3-15-0.3
	c-3.3,0-6.8,0.1-14.9,0.3V122.8z"/>
<path class="st0" d="M648.6,122.8c6.7-0.1,8.5-2.6,8.5-8.3V64.4c0-5.7-1.8-8.2-8.5-8.3V53c3.5,0.1,8.5,0.3,13.7,0.3
	c15.7,0,28.3-0.2,37.8-0.3l0.4,17.2h-3.3c-1.6-9.8-6-13.3-18.3-13.3H670v29.6h7.9c9.3,0,10.6-3.4,11.4-9.8h3.5
	c-0.1,4-0.2,7.8-0.2,11.1c0,4.8,0.1,8.7,0.2,12.8h-3.5c0-8.1-2.6-10.1-11.5-10.1H670v24.4c0,4.7,2,7.3,11.6,7.3
	c10.4,0,17.7-2,20.2-14.9h3.5c-0.6,4.7-1.5,12.8-1.5,18.1c0,0.2-0.3,0.5-0.3,0.7c-0.4,0-0.5,0-0.9,0c-9.8-0.1-22.4-0.3-37.8-0.3
	c-7.9,0-14,0.2-16.1,0.3V122.8z"/>
<path class="st0" d="M703.3,122.8c7.1-0.4,9-1.4,14.6-15.2l22.5-54.4h1.7l27.7,61.9c2.7,5.9,5.1,7.6,10.4,7.6v2.8
	c-0.1,0-1.6,0.2-1.9,0.2c-6.2-0.1-9.9-0.3-13.7-0.3c-4.1,0-8.5,0.2-15.7,0.3v-3.1c5.7,0,7.4-1,7.4-3.8c0-1.1-0.7-3.3-2.9-8.4
	l-4.1-9.6h-23.4l-3,8.3c-2.6,7.2-2.8,8.6-2.8,9.6c0,2.7,1.2,3.8,7.6,3.9v3.1c-8.8-0.3-9.8-0.3-12.3-0.3c-2.6,0-3.6,0-12.3,0.3V122.8
	z M747.9,97.1l-11.1-26.3l-9.4,26.3H747.9z"/>
<path class="st0" d="M776.8,125.6v-2.7c6.6-0.1,8.5-2.6,8.5-8.3V64.4c0-5.7-1.8-8.2-8.5-8.3V53c8.2,0.2,11.7,0.3,14.9,0.3
	c3.3,0,6.8-0.1,15-0.3v3.1c-6.7,0.1-8.5,2.6-8.5,8.3v50.2c0,5.3,3,7.1,11.5,7.1c13.5,0,20.3-1.7,22.3-14.4h3.5l-1.6,18.7
	c-25.2-0.6-53.5-0.2-55.3,0C778.3,125.9,776.8,125.6,776.8,125.6z"/>
<path class="st0" d="M843.7,122.8c6.7-0.1,8.5-2.6,8.5-8.3V58.1h-9c-8.2,0-13.6,2.3-14.2,15.2h-3.8l0.6-20.3
	c11,0.1,21.9,0.2,32.9,0.3c11,0.1,21.9-0.2,32.9-0.3l0.6,20.3h-3.8c-0.6-12.9-6-15.2-14.2-15.2h-9v56.4c0,5.7,1.8,8.2,8.5,8.3v3.1
	c-8.2-0.2-11.7-0.3-15-0.3c-3.3,0-6.8,0.1-14.9,0.3V122.8z"/>
<path class="st0" d="M896.5,122.8c6.6-0.1,8.5-2.6,8.5-8.3V64.4c0-5.7-1.8-8.2-8.5-8.3V53c8.2,0.2,11.7,0.3,15,0.3
	c3.3,0,6.8-0.1,15-0.3v3.1c-6.7,0.1-8.5,2.6-8.5,8.3V85h38.4V64.4c0-5.7-1.8-8.2-8.5-8.3V53c8.2,0.2,11.7,0.3,15,0.3
	c3.3,0,6.8-0.1,14.9-0.3v3.1c-6.7,0.1-8.5,2.6-8.5,8.3v50.2c0,5.7,1.8,8.2,8.5,8.3v3.1c-8.2-0.2-11.7-0.3-14.9-0.3
	c-3.3,0-6.8,0.1-15,0.3v-3.1c6.7-0.1,8.5-2.6,8.5-8.3V89.3h-38.4v25.2c0,5.7,1.8,8.2,8.5,8.3v3.1c-8.2-0.2-11.7-0.3-15-0.3
	c-3.3,0-6.8,0.1-15,0.3V122.8z"/>
<g>
	<path class="st1" d="M18.7,65.6C3.4,55.5,3.4,38.1,3.4,38.1L2.4,5.9l0,0c2.8,10.4,81.9,49.3,81.9,49.3c7.3,3.7,19.5,15.3,19.8,33.2
		l0.5,28.5c-2.1-5.8-5.7-9.9-16.8-15.6C87.8,101.2,35.1,76.6,18.7,65.6z"/>
	<path class="st1" d="M104.6,178.8c0.2-17.3,0.2-14.8-0.5-23.2c-0.8-10.3-7.1-22-26-30.2c0,0-75.5-32.5-78.1-46.2l2,15.9
		c0,0,7.6,78.4,102.7,84.3L104.6,178.8z"/>
	<path class="st1" d="M108.8,179.7c94.1-6.2,103.9-70.3,105.1-86.9c-4.3,12.5-86.9,47.8-86.9,47.8
		C110.2,148.6,108.8,161.8,108.8,179.7L108.8,179.7z"/>
	<path class="st1" d="M109.5,57.2c14,0,25.3-8.8,25.3-19.8c0-10.9-11.4-19.8-25.3-19.8c-14,0-25.3,8.8-25.3,19.8
		C84.1,48.4,95.5,57.2,109.5,57.2z"/>
	<path class="st1" d="M110.3,133.1c3.8-7.4,7.9-8.6,15.6-12.5c0,0,46.3-20.7,63.1-30.2c23.2-13.1,26.4-26,11.7-46
		C176.2,11.1,110-21,40.1,17.6v5.9c80.6-40.1,132.1,11.7,140.9,24c4.2,5.7-0.9,8.1-0.9,8.1c-13.2,7.8-47.4,23.3-47.4,23.3
		c-14.8,6.1-19.7,14.4-21.1,27L110.3,133.1"/>
</g>
<g>
	<g>
		<path class="st2" d="M996.7,104.6c5.9,0,10.6,4.8,10.6,10.6c0,5.9-4.8,10.6-10.6,10.6c-5.9,0-10.6-4.8-10.6-10.6
			C986.1,109.4,990.9,104.6,996.7,104.6 M996.8,124.3c4.9,0,8.6-3.9,8.6-9c0-5.1-3.7-9-8.6-9c-5,0-8.6,4-8.6,9
			C988.1,120.4,991.8,124.3,996.8,124.3z M993.4,109.9h4.1c2.4,0,3.6,1,3.6,3c0,1.7-1.1,2.9-2.7,2.9l3,4.7h-1.8l-3-4.7h-1.4v4.7
			h-1.7V109.9z M995.1,114.5h2c1.3,0,2.2-0.3,2.2-1.6c0-1.2-1.1-1.6-2.2-1.6h-2V114.5z"/>
	</g>
</g>
</svg>
